<?xml version="1.0" encoding="UTF-8"?>
<svg id="Layer_2" data-name="Layer 2" xmlns="http://www.w3.org/2000/svg" viewBox="0 0 300 300">
  <defs>
    <style>
      .cls-1 {
        fill: #fff;
      }
    </style>
  </defs>
  <path id="ver1.1" class="cls-1" d="M228.34,75.42c-.13.06-.22.19-.25.33-.62,3.83-.91,7.57-.91,11.16,0,24.83,13.82,43.93,27.07,53.48,4.75,6.87,6.14,15.59,6.14,23.43,0,4.96-.55,9.54-1.16,13.11-.18-15.14-7.02-27.43-19.29-34.2-.21-.13-.46-.06-.6.14-4.83,7.21-6.87,14.89-6.87,22.39,0,12.16,5.36,23.84,12.85,32.26.05.72.09,1.43.09,2.14,0,7.99-3.07,15.58-9.04,22.64,1.19-4.06,1.77-7.99,1.77-11.69,0-12.83-6.49-23.04-14.97-26.81-.18-.08-.4-.03-.53.14-5.78,6.99-8.04,14.61-8.04,21.82,0,10.21,4.52,19.56,9.94,25.05-.05,5.1-2.56,13.75-9.49,23-7.83,10.44-16.74,18.52-22.83,23.46-1.09.88-1.63,1.65-1.63,2.27,0,.18.04.34.14.49.76,1.32,4.1.24,5.51-.3,10.86-4.09,26.41-16.61,37-27.2,3.22-3.22,7.14-5.41,10.94-7.53,2.45-1.37,5-2.79,7.29-4.45,8.14-5.93,18.02-19.62,22.04-30.52.07-.2,0-.43-.2-.54-.19-.12-.43-.09-.58.08-6.15,6.65-15.53,14.78-22.14,17.54,1.4-6.41,6.61-16.17,11.78-20.01l2.01-1.46c4.76-3.42,10.69-7.69,15.81-15.22,4.19-6.13,6.46-15.87,6.46-25.82,0-5.14-.62-10.35-1.88-15.14-.05-.21-.26-.36-.46-.34-.22,0-.4.16-.43.38-1.56,9.9-8.06,25.17-12.97,30.78-.3-1.71-.49-3.89-.49-6.4,0-6.24,1.1-14.43,4.13-21.78.95-2.3,2.15-4.32,3.41-6.45,2.57-4.36,5.25-8.86,5.66-15.94.06-1.1.09-2.18.09-3.26,0-15.3-6.27-28.66-18.71-39.77-.17-.14-.41-.15-.58-.03-.12.1-.18.23-.18.38,0,.06.01.12.04.19,4.06,8.55,6.09,17.7,6.09,27.36,0,3.62-.3,7.29-.86,11.05-1.56-22.07-15.24-38.95-40.72-50.23-.13-.06-.28-.05-.4.02ZM183.06,169.03c-.35.18-.89.71-.54,2.2.76,3.26,2.45,7.11,4.23,11.19,2.59,5.94,5.54,12.69,6,18.63.98,12.92-3.15,29.11-17.74,35.81-5.79,2.65-12.08,4.3-18.16,5.91-13.61,3.59-26.46,6.96-29.46,20.97-2.3,10.77,3.16,20.23,9.56,22.84,8.93,3.65,20.93,2.93,32.09-1.91,23.2-10.05,34.96-30.58,34.96-61,0-17.12,2.07-27.25,3.84-30.7,3.45-6.74,8.01-10.3,13.81-13.57,1.17-.66,1.72-1.44,1.47-2.09-.18-.51-.85-1.01-2.96-.59-22.07,4.36-27.52,1.29-34.7-6.72-.85-.95-1.74-1.31-2.39-.97ZM81.24,44.78c-3.75.62-7,3.13-9.15,7.1-.55,1.01-1.79,1.32-4.92,1.19-15.68-.61-36.55,14.86-42.96,40.93-.05.2.04.4.21.5.18.11.39.09.54-.05,6.99-6.27,18.85-12.02,26.52-12.92-6.77,10.75-15.4,18.46-27.13,24.21-.75.37-1.71.99-1.71,2.17,0,.09,0,.18.02.26,1.68,14.82,10.01,28.23,22.85,36.8,2.05,1.37,3.34,1.77,4.16,1.29.71-.4.87-1.31.87-2.35,0-.25,0-.51-.03-.77-.06-1.14-.1-2.27-.1-3.41,0-17.53,7.41-37.66,15.43-49.91.12,15.29,7.54,34.86,24.09,43.27.16.09.35.07.5-.04,14.34-11.61,19.88-28.35,15.59-47.14-2.75-12.09-10.96-21.05-17.87-24.6-1.53-.78-2.05-2.5-1.34-4.46.85-2.38,3.14-6.96,5.66-7.36.18-.03.32-.15.37-.31.05-.17,0-.36-.13-.48-3.39-3.14-7.57-4.57-11.48-3.92ZM136.26,51.42c-18.72,1.63-24.07,20.56-24.46,27.05-.45,7.41,1.53,16.21,3.54,21.98,1.69,4.84.9,13.9-1.74,19.8-5.51,15.15-22.65,25.72-28.78,28.52-.19.09-.29.27-.27.47.03.2.18.37.37.41,20.8,3.88,36.97-3.08,41.66-17.78,1.34,3.36,1.96,7.16,1.96,11.42,0,11.58-4.32,26.25-9.51,42.37-.01.04-.02.09-.02.13,0,.14.06.29.18.38.16.11.38.12.54.01,20.79-13.76,29.74-32.92,25.88-55.46h0c-1.88-10.1-3.2-20.63,2.81-28.71,1.98-2.4,4.83-3.67,8-3.57,2.85.1,5.63,1.35,6.9,3.12,2.88,3.67,3.39,10.62,3.39,10.69,0,.21.17.38.38.42.21.04.4-.07.49-.25,5.88-12.45,4.13-22.55-4.68-27.04-8-4.07-16.44.33-19.99,2.4.61-1.1,1.06-2.28,1.34-3.63.11-.57.18-1.21.18-1.9,0-1.73-.43-3.7-1.48-5.19-.95-1.34-2.28-2.14-3.95-2.37-1.8-.25-3.51.23-4.94,1.38-2.11,1.69-3.22,4.48-3.4,6.5,0,.16,0,.32,0,.49,0,1.14.24,2.87.56,4.29-2.37-2.64-3.43-6.42-3.43-10.69,0-7.82,3.52-17.31,8.85-24.51.07-.08.09-.18.09-.27s-.01-.16-.06-.23c-.08-.16-.26-.24-.44-.24ZM56.73,137.74c-.22.04-.37.21-.38.43-.44,12.5,1.25,35.47,17.41,48.8,11.77,9.72,28.61,12.12,50.09,7.18.21-.05.35-.24.35-.46,0-.21-.14-.4-.36-.44-31.74-7.12-54.15-25.71-66.61-55.24-.08-.2-.29-.33-.5-.28ZM61.2,110.55c-3.48,10.62-2.88,19.62,1.74,25.98,4.4,6.07,12.36,9.4,22.42,9.4.21,0,.4-.14.44-.35.05-.2-.06-.42-.25-.52-12.13-5.6-21.33-19.11-23.46-34.46-.02-.21-.2-.37-.42-.38-.21-.03-.41.1-.47.32ZM65.41,144.15c-.16.12-.23.34-.15.54,4.68,11.71,13.16,20.19,23.24,23.29,10.34,3.17,21.94.69,33.56-7.17.17-.12.24-.35.17-.55-.07-.19-.28-.31-.49-.29-18.49,2.26-43.77-6.35-55.78-15.82-.15-.13-.39-.13-.56,0ZM115.66,15.3c-2.14,5.64-9.1,18.85-27.29,19.77-.21,0-.39.17-.42.38-.03.21.08.42.28.49,7.97,3.26,17.55,12.21,17.95,36.38,0,.23.17.41.39.45.22.03.44-.11.5-.32,5.74-18.53,14.7-27.98,27.4-28.91.21,0,.38-.16.42-.36.04-.21-.07-.41-.25-.5-8.15-3.94-17.9-11.86-18.09-27.23,0-.22-.16-.41-.38-.45s-.43.09-.51.29ZM149.75,11.42c-1.65,4.7-7.24,12.64-17.69,12.64-.22,0-.42.16-.45.4-.04.22.1.44.32.5,5.4,1.57,11.69,8.65,11.69,23.47,0,.23.16.43.39.45.23.04.44-.1.51-.32,2.6-8.31,6.94-17.95,17.6-18.71.21-.02.39-.18.43-.39.03-.21-.09-.43-.28-.5-2.69-1.11-11.48-5.62-11.62-17.39,0-.22-.16-.4-.38-.45-.22-.04-.44.09-.5.3ZM25.14,137.22c-17.07,22.39-14.06,50.69-.54,63.07h0c5.21,4.77,11.7,7.19,17.83,6.63,5.42-.48,10.14-3.17,13.65-7.79,7.02-9.22,5.13-23.23-4.32-31.93-3.25-2.94-6.14-5.14-8.92-7.26-2.67-2.02-5.18-3.94-7.86-6.38-1.85-1.7-7.98-7.86-9.01-16.13-.02-.18-.15-.32-.34-.37-.18-.05-.37,0-.49.15ZM39.25,210.26c-.19.03-.33.17-.37.36-4.06,19.12,6.26,35.98,18.44,39.74h0c4.71,1.45,9.53,1.03,13.23-1.13,3.28-1.94,5.45-5.04,6.28-9.01,1.69-7.93-3.69-16.19-12.24-18.81-2.92-.89-5.38-1.42-7.77-1.92-2.25-.48-4.38-.93-6.78-1.66-1.65-.5-7.25-2.51-10.33-7.35-.1-.16-.28-.23-.47-.2ZM80.08,246.03c-.17.07-.29.22-.29.41-.02.38-.02.76-.02,1.14,0,18.09,12.3,31.6,24.12,32.99,4.66.54,9.11-.66,12.21-3.33,2.75-2.38,4.27-5.68,4.37-9.56.22-7.7-6.23-14.53-14.71-15.54-2.88-.34-5.26-.4-7.58-.47-2.2-.06-4.29-.12-6.65-.41-1.63-.18-7.24-1.1-10.95-5.12-.12-.14-.32-.19-.5-.12ZM103.89,280.57h0ZM144.1,171.11c-5.06,3.51-8.45,8.79-9.54,14.86-.18,1.02-.27,2.06-.27,3.09,0,3.81,1.21,7.66,3.51,10.9,2.79,3.92,6.88,6.6,11.3,7.45-.65,4.69-2.27,8.87-3.73,12.58-1.27,3.24-2.33,5.92-2.33,8.03,0,.43.04.85.14,1.24.05.18.18.31.35.34,9.02,1.8,18.19-.08,25.84-5.27,7.91-5.4,13.44-14.01,15.17-23.62,1.36-7.55-.31-15.18-4.68-21.48-4.39-6.31-10.95-10.53-18.51-11.88-6.07-1.09-12.2.24-17.26,3.76ZM169.2,112.55c-.12.18-.11.41.03.57.13.17.36.21.55.12,4.64-2.34,9.26-3.02,12.67-1.9,2.23.74,3.93,2.24,5.05,4.47,1.43,3.02,1.14,6.44-.85,9.9-5.35,9.27-21.34,16.98-38.03,18.33-.2.02-.37.14-.41.33-.05.18.02.39.18.49,9.75,6.77,22.63,6.7,31.17,6.65,2.97-.02,5.55-.03,7.33.23,2.01.31,3.87,1.74,5.4,4.13,3.31,5.18,4.3,13.26,3.11,17.28-.04.16,0,.35.12.46.12.12.3.16.46.11,7.48-2.53,14.96-9.51,15.24-17.89,2.96,5.05,8.52,9.03,14.16,9.95.17.03.34-.04.44-.18,2.07-2.76,2.91-6.09,2.91-9.4,0-4.97-1.92-9.88-4.5-12.72,2.9.23,5.84-.5,8.25-2.18,2.47-1.71,4.07-4.14,4.52-6.84.01-.05,0-.12,0-.17-.76-4-2.58-6.83-5.4-8.41-2.36-1.31-5.35-1.62-8.47-.97,2.16-1.8,3.54-3.97,4-6.37.12-.6.17-1.19.17-1.8,0-2.54-1-5.17-2.95-7.7-.03-.05-.09-.08-.14-.12-5.98-3.33-12.96-2.04-17.02,3-1.17-4.85-5.51-8.7-11.65-10.16-7.37-1.76-18.69,0-26.35,10.76ZM73.34,198.62c-.21.05-.35.23-.36.44h0c0,.22.14.39.34.45,1.52.38,3.23,1.02,5.22,1.93.4.18.51.33.52.38h0s-.02.05-.07.1l-10.04,8.98c-.74.61-1.52.56-1.82.51-.54-.09-3.63-.81-5.34-1.45-.18-.07-.39-.02-.51.14-.13.15-.14.35-.05.53,6.59,11.59,20.2,15.39,33.26,9.41,1.03,9.5,4.46,15.75,11.42,20.8,8.15,5.88,24.42,6.68,30.03,1.47.13-.12.18-.31.13-.48-.06-.17-.21-.3-.39-.31-2.21-.29-5.29-1.06-6.46-1.61-.61-.29-.92-.73-1.04-1.45-.74-4.58.16-17.77,1.05-21.54.08-.31.27-.65.57-.65.71,0,3.1.33,4.39.66.17.04.36-.02.47-.15.11-.14.14-.33.06-.49-1.96-4.05-6.33-7.37-12-9.11-7.45-2.29-15.94-1.47-22.32,2.04-3.33-9.62-13.63-13.69-27.08-10.6ZM161.86,13.15c-.05.08-.08.17-.08.25,0,.06.02.12.04.18,4.21,9.81,13.58,21.88,20.59,29.06-.34.96-.53,2.02-.53,3.17,0,1.8.43,3.79,1.23,5.79-12.19.97-29.14.38-39.09-.68-.21-.02-.4.11-.48.29-.07.2,0,.42.16.55,9.48,6.91,15.04,17.79,15.65,24.97.01.13.07.25.18.32.1.08.22.12.35.1,14.17-1.97,28.96-8.2,36.38-13.4.96.44,1.95.84,2.95,1.21-2.79,7.71-8.92,17.67-15.06,24.42-.08.08-.12.19-.12.3,0,.08.01.15.04.21.09.17.26.27.45.26,9.53-.74,27.03,4.23,33.86,11.06.11.12.29.16.44.12.17-.05.29-.17.33-.34,1.1-4.37,1.55-9.04,1.55-13.61,0-7.4-1.21-14.55-2.92-19.8,4.17-.73,6.49-3.14,6.75-7,12.19,2.39,26.73,7.67,39.04,14.19.19.1.42.06.55-.09.14-.15.17-.37.06-.55-4-6.55-12.44-17.25-18.16-22.11-.04-.04-.08-.06-.12-.07-6.99-2.96-20.11-4.6-26.9-4.08-.6-.58-1.26-1.16-1.94-1.73,3.97-2.99,10.37-4.91,14.79-5.42.18-.02.33-.15.39-.32.02-.05.02-.1.02-.14,0-.12-.06-.25-.15-.35-4.2-3.66-17.33-12.01-21.98-13.34-.08-.02-.17-.02-.25,0-4.83,1.35-8.1,6.81-9.29,11.78-1.34-.26-2.71-.46-4.08-.59-2.63-6.33-4.37-13.82-4.92-18.5-.02-.15-.12-.28-.25-.36-5.94-3.17-22.33-5.95-29.1-5.95-.15,0-.3.08-.38.21ZM184.48,89.22h-.04.04Z"/>
</svg>